# File created by Blade
# Date/Time:  Fri Jan 16 19:50:04 2015
#---------------------------------------------------------
:version 1.10
:name HOM
:units
  mass 1.0
  length 1.000000
  angle deg
:documentation
     Acclaim Skeleton File
:root
   axis xyz
   order TX TY TZ RX RY RZ
   position 0.000000 0.000000 0.000000
   orientation 0 0 0
:bonedata
   begin
      id 1
      name Spine_dum
      direction 0.000000 1.000000 0.000000
      length 7.067664
      axis 0.0 0.0 0.0 xyz
   end
   begin
      id 2
      name LeftUpLeg_dum
      direction 1.000000 0.000000 0.000000
      length 4.013002
      axis 0.0 0.0 0.0 xyz
   end
   begin
      id 3
      name RightUpLeg_dum
      direction -1.000000 0.000000 0.000000
      length 4.013002
      axis 0.0 0.0 0.0 xyz
   end
   begin
      id 4
      name Spine
      direction 0.000000 1.000000 0.000000
      length 0.000000
      axis 0.0 0.0 0.0 xyz
      dof rx ry rz
   end
   begin
      id 5
      name Spine_dum1
      direction 0.000000 1.000000 0.000000
      length 15.039886
      axis 0.0 0.0 0.0 xyz
   end
   begin
      id 6
      name Spine_dum2
      direction 0.000000 1.000000 0.000000
      length 10.530368
      axis 0.0 0.0 0.0 xyz
   end
   begin
      id 7
      name Spine_dum3
      direction 0.000000 1.000000 0.000000
      length 10.530368
      axis 0.0 0.0 0.0 xyz
   end
   begin
      id 8
      name Head
      direction 0.000000 1.000000 0.000000
      length 4.527550
      axis 0.0 0.0 0.0 xyz
      dof rx ry rz
   end
   begin
      id 9
      name LeftShoulder
      direction 1.000000 0.000000 0.000000
      length 7.028855
      axis 0.0 0.0 -90.0 xyz
      dof rx ry rz
   end
   begin
      id 10
      name LeftArm
      direction 1.000000 0.000000 0.000000
      length 10.797705
      axis 0.0 0.0 -90.0 xyz
      dof rx ry rz
   end
   begin
      id 11
      name LeftForeArm
      direction 1.000000 0.000000 0.000000
      length 7.907442
      axis 0.0 0.0 -90.0 xyz
      dof ry rz rx
   end
   begin
      id 12
      name LeftHand
      direction 0.000000 0.000000 0.000000
      length 0.000000
      axis 0.0 0.0 -90.0 xyz
      dof rx ry rz
   end
   begin
      id 13
      name LeftHand_dum1
      direction 0.000000 0.000000 0.000000
      length 0.000000
      axis 0.0 0.0 -90.0 xyz
   end
   begin
      id 14
      name LeftHand_dum2
      direction 1.000000 0.000000 0.000000
      length 3.937000
      axis 0.0 0.0 -90.0 xyz
   end
   begin
      id 15
      name LeftHandThumb1
      direction 0.000000 0.000000 1.000000
      length 3.937000
      axis 0.0 0.0 -90.0 xyz
      dof rx rz ry
   end
   begin
      id 16
      name RightShoulder
      direction -1.000000 0.000000 0.000000
      length 7.028855
      axis 0.0 0.0 90.0 xyz
      dof rx ry rz
   end
   begin
      id 17
      name RightArm
      direction -1.000000 0.000000 0.000000
      length 10.797705
      axis 0.0 0.0 90.0 xyz
      dof rx ry rz
   end
   begin
      id 18
      name RightForeArm
      direction -1.000000 0.000000 0.000000
      length 7.907442
      axis 0.0 0.0 90.0 xyz
      dof ry rz rx
   end
   begin
      id 19
      name RightHand
      direction 0.000000 0.000000 0.000000
      length 0.000000
      axis 0.0 0.0 90.0 xyz
      dof rx ry rz
   end
   begin
      id 20
      name RightHand_dum1
      direction 0.000000 0.000000 0.000000
      length 0.000000
      axis 0.0 0.0 90.0 xyz
   end
   begin
      id 21
      name RightHand_dum2
      direction -1.000000 0.000000 0.000000
      length 3.937000
      axis 0.0 0.0 90.0 xyz
   end
   begin
      id 22
      name RightHandThumb1
      direction 0.000000 0.000000 1.000000
      length 3.937000
      axis 0.0 0.0 90.0 xyz
      dof rx rz ry
   end
   begin
      id 23
      name LeftUpLeg
      direction 0.000000 -1.000000 0.000000
      length 16.899758
      axis 0.0 0.0 0.0 xyz
      dof rx ry rz
   end
   begin
      id 24
      name LeftLeg
      direction 0.000000 -1.000000 0.000000
      length 17.389183
      axis 0.0 0.0 0.0 xyz
      dof rx ry rz
   end
   begin
      id 25
      name LeftFoot
      direction 0.000000 -0.258819 0.965926
      length 4.924528
      axis 15.0 0.0 0.0 xyz
      dof rx ry rz
   end
   begin
      id 26
      name LeftToeBase
      direction 0.000000 0.000000 1.000000
      length 2.952750
      axis 0.0 0.0 0.0 xyz
      dof rx ry rz
   end
   begin
      id 27
      name RightUpLeg
      direction 0.000000 -1.000000 0.000000
      length 16.899758
      axis 0.0 0.0 0.0 xyz
      dof rx ry rz
   end
   begin
      id 28
      name RightLeg
      direction 0.000000 -1.000000 0.000000
      length 17.389183
      axis 0.0 0.0 0.0 xyz
      dof rx ry rz
   end
   begin
      id 29
      name RightFoot
      direction 0.000000 -0.258819 0.965926
      length 4.924528
      axis 15.0 0.0 0.0 xyz
      dof rx ry rz
   end
   begin
      id 30
      name RightToeBase
      direction 0.000000 0.000000 1.000000
      length 2.952750
      axis 0.0 0.0 0.0 xyz
      dof rx ry rz
   end
:hierarchy
   begin
      root Spine_dum LeftUpLeg_dum RightUpLeg_dum
      Spine_dum Spine
      LeftUpLeg_dum LeftUpLeg
      RightUpLeg_dum RightUpLeg
      Spine Spine_dum1 Spine_dum2 Spine_dum3
      Spine_dum1 Head
      Spine_dum2 LeftShoulder
      Spine_dum3 RightShoulder
      LeftShoulder LeftArm
      LeftArm LeftForeArm
      LeftForeArm LeftHand
      LeftHand LeftHand_dum1 LeftHand_dum2
      LeftHand_dum1 LeftHandThumb1
      RightShoulder RightArm
      RightArm RightForeArm
      RightForeArm RightHand
      RightHand RightHand_dum1 RightHand_dum2
      RightHand_dum1 RightHandThumb1
      LeftUpLeg LeftLeg
      LeftLeg LeftFoot
      LeftFoot LeftToeBase
      RightUpLeg RightLeg
      RightLeg RightFoot
      RightFoot RightToeBase
   end

# File created by Blade
# Date/Time:  Fri Jan 16 19:49:56 2015
# Frame Rate: 120.000 fps
#------------------------------------------------------
:FULLY-SPECIFIED
:DEGREES
60
root 19.367787 35.379507 -21.502722 -170.883904 -1.208438 -178.812998
Spine -20.035307 -0.226238 0.132503
Head 10.375415 -1.629741 2.714950
LeftShoulder -12.756772 -36.685115 22.817172
LeftArm 5.289967 5.051206 -6.750720
LeftForeArm 13.940936 -0.000000 -1.279100
LeftHand -7.028224 -0.000000 -3.413432
LeftHandThumb1 -26.253704 0.000000 33.147579
RightShoulder -12.357347 -0.846627 -13.247023
RightArm 3.492555 38.267112 8.122097
RightForeArm -37.815528 0.000000 5.332717
RightHand -5.379287 -0.000000 9.273134
RightHandThumb1 -24.326973 -0.000000 -32.862282
LeftUpLeg -0.427717 8.103740 3.028556
LeftLeg -6.417486 -0.000000 0.000000
LeftFoot -20.741225 30.183334 -12.172506
LeftToeBase 26.932585 -0.000000 -0.000000
RightUpLeg -1.607345 -9.843460 -1.922898
RightLeg -2.598899 -0.000000 0.000000
RightFoot -21.148096 -23.288262 16.996297
RightToeBase 24.192487 -0.000000 -0.000000
61
root 19.369467 35.382496 -21.505464 -170.839422 -1.177948 -178.766290
Spine -20.054261 -0.213277 0.209529
Head 10.332258 -1.588558 2.677730
LeftShoulder -12.805945 -36.601146 22.755661
LeftArm 5.218248 5.165869 -6.753693
LeftForeArm 14.073549 -0.000000 -1.169806
LeftHand -7.009121 -0.000000 -2.970988
LeftHandThumb1 -26.253704 0.000000 33.147579
RightShoulder -12.366543 -0.924960 -13.263197
RightArm 3.445705 38.142215 8.227355
RightForeArm -37.898342 -0.000000 5.417458
RightHand -5.342530 0.000000 8.840790
RightHandThumb1 -24.326973 -0.000000 -32.862282
LeftUpLeg -0.440669 8.027423 3.086428
LeftLeg -6.443908 -0.000000 0.000000
LeftFoot -20.741308 30.210605 -12.212371
LeftToeBase 26.913776 -0.000000 -0.000000
RightUpLeg -1.625879 -9.625411 -1.917870
RightLeg -2.627255 -0.000000 0.000000
RightFoot -21.069994 -23.268229 17.085121
RightToeBase 24.037006 -0.000000 -0.000000
62
root 19.367672 35.384578 -21.510445 -170.808827 -1.143550 -178.735230
Spine -20.055442 -0.201468 0.277813
Head 10.281277 -1.573084 2.620922
LeftShoulder -12.846243 -36.483670 22.685889
LeftArm 5.120730 5.290569 -6.753788
LeftForeArm 14.158260 0.000000 -1.035045
LeftHand -7.015699 0.000000 -2.567742
LeftHandThumb1 -26.253704 0.000000 33.147579
RightShoulder -12.375697 -0.976723 -13.313632
RightArm 3.401280 37.845511 8.365657
RightForeArm -37.851673 -0.000000 5.517032
RightHand -5.435974 -0.000000 8.350200
RightHandThumb1 -24.326973 -0.000000 -32.862282
LeftUpLeg -0.433971 7.966209 3.123380
LeftLeg -6.478753 -0.000000 0.000000
LeftFoot -20.740376 30.240780 -12.262647
LeftToeBase 26.868745 -0.000000 -0.000000
RightUpLeg -1.663111 -9.581692 -1.931149
RightLeg -2.586807 -0.000000 0.000000
RightFoot -21.003691 -23.071346 17.099296
RightToeBase 24.019137 -0.000000 -0.000000
63
root 19.367296 35.387402 -21.514613 -170.779761 -1.099367 -178.700775
Spine -20.054721 -0.189491 0.340651
Head 10.243983 -1.560108 2.572468
LeftShoulder -12.866343 -36.361483 22.614076
LeftArm 4.963024 5.530694 -6.744032
LeftForeArm 14.284952 0.000000 -0.827507
LeftHand -6.986547 -0.000000 -2.262976
LeftHandThumb1 -26.253704 0.000000 33.147579
RightShoulder -12.338754 -1.071714 -13.337008
RightArm 3.260254 37.583187 8.477735
RightForeArm -37.973921 -0.000000 5.716653
RightHand -5.466858 0.000000 7.672272
RightHandThumb1 -24.326973 -0.000000 -32.862282
LeftUpLeg -0.417949 7.900476 3.166068
LeftLeg -6.523176 -0.000000 0.000000
LeftFoot -20.742615 30.269135 -12.313737
LeftToeBase 26.863205 -0.000000 -0.000000
RightUpLeg -1.671222 -9.480171 -1.955133
RightLeg -2.589568 -0.000000 0.000000
RightFoot -20.906599 -22.845206 17.176961
RightToeBase 23.893716 -0.000000 -0.000000
64
root 19.369469 35.390239 -21.518513 -170.742694 -1.057897 -178.651711
Spine -20.061481 -0.173640 0.414412
Head 10.211054 -1.547420 2.524388
LeftShoulder -12.880826 -36.187179 22.523302
LeftArm 4.805815 5.770592 -6.736190
LeftForeArm 14.299002 -0.000000 -0.582483
LeftHand -6.960844 -0.000000 -2.065978
LeftHandThumb1 -26.253704 0.000000 33.147579
RightShoulder -12.292021 -1.247007 -13.356343
RightArm 3.056504 37.234441 8.611241
RightForeArm -38.123203 -0.000000 6.030816
RightHand -5.473579 0.000000 6.892275
RightHandThumb1 -24.326973 -0.000000 -32.862282
LeftUpLeg -0.414256 7.853521 3.227553
LeftLeg -6.560592 -0.000000 0.000000
LeftFoot -20.746031 30.271844 -12.357105
LeftToeBase 26.862029 -0.000000 -0.000000
RightUpLeg -1.659677 -9.342688 -1.967950
RightLeg -2.635929 -0.000000 0.000000
RightFoot -20.769494 -22.632731 17.208871
RightToeBase 23.920966 -0.000000 -0.000000
65
root 19.370866 35.392639 -21.522406 -170.713889 -1.016768 -178.611063
Spine -20.050213 -0.163398 0.480010
Head 10.157785 -1.513461 2.486706
LeftShoulder -12.906772 -35.958171 22.439746
LeftArm 4.634403 6.119050 -6.758880
LeftForeArm 14.187372 0.000000 -0.317980
LeftHand -7.011799 -0.000000 -1.735954
LeftHandThumb1 -26.253704 0.000000 33.147579
RightShoulder -12.232032 -1.404471 -13.371330
RightArm 2.784414 36.759082 8.764091
RightForeArm -38.444178 -0.000000 6.487533
RightHand -5.688762 0.000000 5.938096
RightHandThumb1 -24.326973 -0.000000 -32.862282
LeftUpLeg -0.404420 7.783384 3.280638
LeftLeg -6.593283 -0.000000 0.000000
LeftFoot -20.735221 30.311564 -12.397807
LeftToeBase 26.775935 -0.000000 -0.000000
RightUpLeg -1.644853 -9.260881 -1.977209
RightLeg -2.689848 -0.000000 0.000000
RightFoot -20.670470 -22.421994 17.282845
RightToeBase 23.886678 -0.000000 -0.000000
